<mxfile host="Electron" modified="2023-05-15T09:27:58.036Z" agent="Mozilla/5.0 (Windows NT 10.0; Win64; x64) AppleWebKit/537.36 (KHTML, like Gecko) draw.io/21.2.8 Chrome/112.0.5615.165 Electron/24.2.0 Safari/537.36" etag="urlZ5NsvZJJ-xY0otXnG" version="21.2.8" type="device">
  <diagram name="Страница 1" id="vSN0zOsbVQ_ziBr6iRNW">
    <mxGraphModel dx="2053" dy="1188" grid="1" gridSize="10" guides="1" tooltips="1" connect="1" arrows="1" fold="1" page="1" pageScale="1" pageWidth="827" pageHeight="1169" math="0" shadow="0">
      <root>
        <mxCell id="0" />
        <mxCell id="1" parent="0" />
        <mxCell id="NfnfCwqI7M4uG_9BYdU6-4" style="edgeStyle=orthogonalEdgeStyle;rounded=0;orthogonalLoop=1;jettySize=auto;html=1;exitX=0.5;exitY=1;exitDx=0;exitDy=0;exitPerimeter=0;entryX=0.5;entryY=0;entryDx=0;entryDy=0;endArrow=none;endFill=0;" parent="1" source="NfnfCwqI7M4uG_9BYdU6-1" target="NfnfCwqI7M4uG_9BYdU6-3" edge="1">
          <mxGeometry relative="1" as="geometry" />
        </mxCell>
        <mxCell id="NfnfCwqI7M4uG_9BYdU6-1" value="Начало" style="strokeWidth=2;html=1;shape=stencil(xVVNb4MwDP01HJmAaFV7nFh37GWTdnapC1FDgpysH/9+gYBaSukgl0kc8DO85+fYSsBSXUCFQRJJKDFg70GSfCGVXIJRZAObKRy8iFx4cuFq6ULQFWbGYUcgDluBLqMNqQOe+M60DFwWSNzUWbYOojf7Tf2wNFNSWhKupO5lbvKWDLi0/0ZnRxa9vDqZSxu7qLIKJRqkHno1t3FAkHx4K8XTlD49lPqOOt2/lL7nK8V+Smuf7sX3YvHEDm48jD2QW64mHpiXXMc+351XMwdyk92NyLHUImMLyNItZIec1I/cPSyygnq5B4kuXaojXqtnd/P9zH/HILi8YVgs5zMAZfaFWobuH7r0azqHcOY6JGWgbkOPXwDlGFqecC8g76X0CbG6gduzf1zuwsPxXc+mUfyjZZ8zzoTS+GQTLD6YswYdGU6W7hXhk6ndcyHc7TS2EAOCBnV3ZQP8Ag==);whiteSpace=wrap;fontSize=17;" parent="1" vertex="1">
          <mxGeometry x="289" y="10" width="250" height="80" as="geometry" />
        </mxCell>
        <mxCell id="A0MCLNn6qekpqNKE2fol-1" style="edgeStyle=orthogonalEdgeStyle;rounded=0;orthogonalLoop=1;jettySize=auto;html=1;exitX=0.5;exitY=1;exitDx=0;exitDy=0;entryX=0.5;entryY=0;entryDx=0;entryDy=0;endArrow=none;endFill=0;" parent="1" source="NfnfCwqI7M4uG_9BYdU6-3" target="NfnfCwqI7M4uG_9BYdU6-5" edge="1">
          <mxGeometry relative="1" as="geometry" />
        </mxCell>
        <mxCell id="NfnfCwqI7M4uG_9BYdU6-3" value="Обработанная &lt;br&gt;карта сферы" style="shape=parallelogram;html=1;strokeWidth=2;perimeter=parallelogramPerimeter;whiteSpace=wrap;rounded=0;arcSize=12;size=0.23;fontSize=17;" parent="1" vertex="1">
          <mxGeometry x="313" y="120" width="200" height="90" as="geometry" />
        </mxCell>
        <mxCell id="A0MCLNn6qekpqNKE2fol-4" style="edgeStyle=orthogonalEdgeStyle;rounded=0;orthogonalLoop=1;jettySize=auto;html=1;exitX=0.5;exitY=1;exitDx=0;exitDy=0;entryX=0.5;entryY=0;entryDx=0;entryDy=0;endArrow=none;endFill=0;" parent="1" source="NfnfCwqI7M4uG_9BYdU6-5" target="A0MCLNn6qekpqNKE2fol-2" edge="1">
          <mxGeometry relative="1" as="geometry" />
        </mxCell>
        <mxCell id="NfnfCwqI7M4uG_9BYdU6-5" value="Вычисление контуров источников света" style="verticalLabelPosition=middle;verticalAlign=middle;html=1;shape=process;whiteSpace=wrap;rounded=0;size=0.14;arcSize=6;strokeWidth=2;labelPosition=center;align=center;fontSize=17;" parent="1" vertex="1">
          <mxGeometry x="313" y="240" width="200" height="80" as="geometry" />
        </mxCell>
        <mxCell id="A0MCLNn6qekpqNKE2fol-5" style="edgeStyle=orthogonalEdgeStyle;rounded=0;orthogonalLoop=1;jettySize=auto;html=1;exitX=0.5;exitY=1;exitDx=0;exitDy=0;entryX=0.5;entryY=0;entryDx=0;entryDy=0;endArrow=none;endFill=0;" parent="1" source="A0MCLNn6qekpqNKE2fol-2" target="A0MCLNn6qekpqNKE2fol-3" edge="1">
          <mxGeometry relative="1" as="geometry" />
        </mxCell>
        <mxCell id="A0MCLNn6qekpqNKE2fol-2" value="Вычисление моментов контуров источников света" style="verticalLabelPosition=middle;verticalAlign=middle;html=1;shape=process;whiteSpace=wrap;rounded=0;size=0.14;arcSize=6;strokeWidth=2;labelPosition=center;align=center;fontSize=17;" parent="1" vertex="1">
          <mxGeometry x="313" y="350" width="200" height="90" as="geometry" />
        </mxCell>
        <mxCell id="A0MCLNn6qekpqNKE2fol-7" style="edgeStyle=orthogonalEdgeStyle;rounded=0;orthogonalLoop=1;jettySize=auto;html=1;exitX=0.5;exitY=1;exitDx=0;exitDy=0;entryX=0.5;entryY=0;entryDx=0;entryDy=0;endArrow=none;endFill=0;" parent="1" source="A0MCLNn6qekpqNKE2fol-3" edge="1">
          <mxGeometry relative="1" as="geometry">
            <mxPoint x="413" y="580" as="targetPoint" />
          </mxGeometry>
        </mxCell>
        <mxCell id="A0MCLNn6qekpqNKE2fol-3" value="Вычисление центроидов источников света" style="verticalLabelPosition=middle;verticalAlign=middle;html=1;shape=process;whiteSpace=wrap;rounded=0;size=0.14;arcSize=6;strokeWidth=2;labelPosition=center;align=center;fontSize=17;" parent="1" vertex="1">
          <mxGeometry x="313" y="470" width="200" height="80" as="geometry" />
        </mxCell>
        <mxCell id="A0MCLNn6qekpqNKE2fol-9" style="edgeStyle=orthogonalEdgeStyle;rounded=0;orthogonalLoop=1;jettySize=auto;html=1;exitX=0.5;exitY=1;exitDx=0;exitDy=0;entryX=0.5;entryY=0;entryDx=0;entryDy=0;endArrow=none;endFill=0;" parent="1" target="A0MCLNn6qekpqNKE2fol-8" edge="1">
          <mxGeometry relative="1" as="geometry">
            <mxPoint x="413" y="660" as="sourcePoint" />
          </mxGeometry>
        </mxCell>
        <mxCell id="A0MCLNn6qekpqNKE2fol-34" style="edgeStyle=orthogonalEdgeStyle;rounded=0;orthogonalLoop=1;jettySize=auto;html=1;exitX=0.5;exitY=1;exitDx=0;exitDy=0;entryX=0.5;entryY=0;entryDx=0;entryDy=0;endArrow=none;endFill=0;" parent="1" source="A0MCLNn6qekpqNKE2fol-8" target="A0MCLNn6qekpqNKE2fol-11" edge="1">
          <mxGeometry relative="1" as="geometry" />
        </mxCell>
        <mxCell id="A0MCLNn6qekpqNKE2fol-8" value="&lt;span style=&quot;color: rgb(32, 33, 34); font-family: sans-serif; font-size: 17px; font-style: normal; font-variant-ligatures: normal; font-variant-caps: normal; letter-spacing: normal; orphans: 2; text-align: left; text-indent: 0px; text-transform: none; widows: 2; word-spacing: 0px; -webkit-text-stroke-width: 0px; background-color: rgb(248, 249, 250); text-decoration-thickness: initial; text-decoration-style: initial; text-decoration-color: initial;&quot;&gt;θ[i] := 2 *&amp;nbsp;&lt;/span&gt;π * x&lt;sub&gt;pixel&lt;/sub&gt;&lt;span style=&quot;color: rgb(32, 33, 34); font-family: sans-serif; text-align: left; background-color: rgb(248, 249, 250);&quot;&gt;[i]&lt;/span&gt;&amp;nbsp;/&amp;nbsp; width" style="rounded=0;whiteSpace=wrap;html=1;absoluteArcSize=1;arcSize=14;strokeWidth=2;fontSize=17;fontStyle=0" parent="1" vertex="1">
          <mxGeometry x="314" y="680" width="200" height="60" as="geometry" />
        </mxCell>
        <mxCell id="A0MCLNn6qekpqNKE2fol-35" style="edgeStyle=orthogonalEdgeStyle;rounded=0;orthogonalLoop=1;jettySize=auto;html=1;exitX=0.5;exitY=1;exitDx=0;exitDy=0;entryX=0.5;entryY=0;entryDx=0;entryDy=0;endArrow=none;endFill=0;" parent="1" source="A0MCLNn6qekpqNKE2fol-11" target="A0MCLNn6qekpqNKE2fol-12" edge="1">
          <mxGeometry relative="1" as="geometry" />
        </mxCell>
        <mxCell id="A0MCLNn6qekpqNKE2fol-11" value="&lt;span style=&quot;color: rgb(32, 33, 34); font-family: sans-serif; font-size: 17px; font-style: normal; font-variant-ligatures: normal; font-variant-caps: normal; letter-spacing: normal; orphans: 2; text-align: left; text-indent: 0px; text-transform: none; widows: 2; word-spacing: 0px; -webkit-text-stroke-width: 0px; background-color: rgb(248, 249, 250); text-decoration-thickness: initial; text-decoration-style: initial; text-decoration-color: initial;&quot;&gt;φ[i] := &lt;/span&gt;π * (height / 2 - y&lt;sub&gt;pixel&lt;/sub&gt;&lt;span style=&quot;color: rgb(32, 33, 34); font-family: sans-serif; text-align: left; background-color: rgb(248, 249, 250);&quot;&gt;[i]&lt;/span&gt;) / height" style="rounded=0;whiteSpace=wrap;html=1;absoluteArcSize=1;arcSize=14;strokeWidth=2;fontSize=17;fontStyle=0" parent="1" vertex="1">
          <mxGeometry x="314" y="770" width="200" height="60" as="geometry" />
        </mxCell>
        <mxCell id="A0MCLNn6qekpqNKE2fol-18" style="edgeStyle=orthogonalEdgeStyle;rounded=0;orthogonalLoop=1;jettySize=auto;html=1;exitX=0.5;exitY=1;exitDx=0;exitDy=0;entryX=0.5;entryY=0;entryDx=0;entryDy=0;endArrow=none;endFill=0;" parent="1" source="A0MCLNn6qekpqNKE2fol-12" target="A0MCLNn6qekpqNKE2fol-13" edge="1">
          <mxGeometry relative="1" as="geometry" />
        </mxCell>
        <mxCell id="A0MCLNn6qekpqNKE2fol-12" value="&lt;span style=&quot;color: rgb(32, 33, 34); font-family: sans-serif; font-size: 17px; font-style: normal; font-variant-ligatures: normal; font-variant-caps: normal; letter-spacing: normal; orphans: 2; text-align: left; text-indent: 0px; text-transform: none; widows: 2; word-spacing: 0px; -webkit-text-stroke-width: 0px; background-color: rgb(248, 249, 250); text-decoration-thickness: initial; text-decoration-style: initial; text-decoration-color: initial;&quot;&gt;r[i] := depth[&lt;/span&gt;x&lt;sub&gt;pixel&lt;/sub&gt;&lt;span style=&quot;color: rgb(32, 33, 34); font-family: sans-serif; text-align: left; background-color: rgb(248, 249, 250);&quot;&gt;[i]&amp;nbsp;&lt;/span&gt;, y&lt;sub&gt;pixel&lt;/sub&gt;&lt;span style=&quot;color: rgb(32, 33, 34); font-family: sans-serif; text-align: left; background-color: rgb(248, 249, 250);&quot;&gt;[i]&lt;/span&gt;]" style="rounded=0;whiteSpace=wrap;html=1;absoluteArcSize=1;arcSize=14;strokeWidth=2;fontSize=17;fontStyle=0" parent="1" vertex="1">
          <mxGeometry x="313" y="860" width="200" height="60" as="geometry" />
        </mxCell>
        <mxCell id="A0MCLNn6qekpqNKE2fol-37" style="edgeStyle=orthogonalEdgeStyle;rounded=0;orthogonalLoop=1;jettySize=auto;html=1;exitX=0.5;exitY=1;exitDx=0;exitDy=0;entryX=0.5;entryY=0;entryDx=0;entryDy=0;endArrow=none;endFill=0;" parent="1" source="A0MCLNn6qekpqNKE2fol-13" target="A0MCLNn6qekpqNKE2fol-14" edge="1">
          <mxGeometry relative="1" as="geometry" />
        </mxCell>
        <mxCell id="A0MCLNn6qekpqNKE2fol-13" value="&lt;span style=&quot;color: rgb(32, 33, 34); font-family: sans-serif; font-size: 17px; font-style: normal; font-variant-ligatures: normal; font-variant-caps: normal; letter-spacing: normal; orphans: 2; text-align: left; text-indent: 0px; text-transform: none; widows: 2; word-spacing: 0px; -webkit-text-stroke-width: 0px; background-color: rgb(248, 249, 250); text-decoration-thickness: initial; text-decoration-style: initial; text-decoration-color: initial;&quot;&gt;x[i] := r[i] * sin(θ[i]) * cos(φ[i])&lt;/span&gt;" style="rounded=0;whiteSpace=wrap;html=1;absoluteArcSize=1;arcSize=14;strokeWidth=2;fontSize=17;fontStyle=0" parent="1" vertex="1">
          <mxGeometry x="314" y="950" width="200" height="60" as="geometry" />
        </mxCell>
        <mxCell id="A0MCLNn6qekpqNKE2fol-20" style="edgeStyle=orthogonalEdgeStyle;rounded=0;orthogonalLoop=1;jettySize=auto;html=1;exitX=0.5;exitY=1;exitDx=0;exitDy=0;entryX=0.5;entryY=0;entryDx=0;entryDy=0;endArrow=none;endFill=0;" parent="1" source="A0MCLNn6qekpqNKE2fol-14" target="A0MCLNn6qekpqNKE2fol-15" edge="1">
          <mxGeometry relative="1" as="geometry" />
        </mxCell>
        <mxCell id="A0MCLNn6qekpqNKE2fol-14" value="&lt;span style=&quot;color: rgb(32, 33, 34); font-family: sans-serif; font-size: 17px; font-style: normal; font-variant-ligatures: normal; font-variant-caps: normal; letter-spacing: normal; orphans: 2; text-align: left; text-indent: 0px; text-transform: none; widows: 2; word-spacing: 0px; -webkit-text-stroke-width: 0px; background-color: rgb(248, 249, 250); text-decoration-thickness: initial; text-decoration-style: initial; text-decoration-color: initial;&quot;&gt;y[i] :=&amp;nbsp;&lt;/span&gt;r[i] * sin(θ[i]) * sin(φ[i])" style="rounded=0;whiteSpace=wrap;html=1;absoluteArcSize=1;arcSize=14;strokeWidth=2;fontSize=17;fontStyle=0" parent="1" vertex="1">
          <mxGeometry x="314" y="1040" width="200" height="60" as="geometry" />
        </mxCell>
        <mxCell id="MVtzeael0hPwo9ZVuhFo-3" style="edgeStyle=orthogonalEdgeStyle;rounded=0;orthogonalLoop=1;jettySize=auto;html=1;exitX=0.5;exitY=1;exitDx=0;exitDy=0;entryX=0.5;entryY=1;entryDx=0;entryDy=0;entryPerimeter=0;endArrow=none;endFill=0;" edge="1" parent="1" source="A0MCLNn6qekpqNKE2fol-15" target="MVtzeael0hPwo9ZVuhFo-2">
          <mxGeometry relative="1" as="geometry" />
        </mxCell>
        <mxCell id="A0MCLNn6qekpqNKE2fol-15" value="&lt;span style=&quot;color: rgb(32, 33, 34); font-family: sans-serif; font-size: 17px; font-style: normal; font-variant-ligatures: normal; font-variant-caps: normal; letter-spacing: normal; orphans: 2; text-align: left; text-indent: 0px; text-transform: none; widows: 2; word-spacing: 0px; -webkit-text-stroke-width: 0px; background-color: rgb(248, 249, 250); text-decoration-thickness: initial; text-decoration-style: initial; text-decoration-color: initial;&quot;&gt;z[i] :=&amp;nbsp;&lt;/span&gt;r[i] * cos(φ[i])" style="rounded=0;whiteSpace=wrap;html=1;absoluteArcSize=1;arcSize=14;strokeWidth=2;fontSize=17;fontStyle=0" parent="1" vertex="1">
          <mxGeometry x="313" y="1129" width="200" height="60" as="geometry" />
        </mxCell>
        <mxCell id="A0MCLNn6qekpqNKE2fol-22" value="Конец" style="strokeWidth=2;html=1;shape=stencil(xVVNb4MwDP01HJmAaFV7nFh37GWTdnapC1FDgpysH/9+gYBaSukgl0kc8DO85+fYSsBSXUCFQRJJKDFg70GSfCGVXIJRZAObKRy8iFx4cuFq6ULQFWbGYUcgDluBLqMNqQOe+M60DFwWSNzUWbYOojf7Tf2wNFNSWhKupO5lbvKWDLi0/0ZnRxa9vDqZSxu7qLIKJRqkHno1t3FAkHx4K8XTlD49lPqOOt2/lL7nK8V+Smuf7sX3YvHEDm48jD2QW64mHpiXXMc+351XMwdyk92NyLHUImMLyNItZIec1I/cPSyygnq5B4kuXaojXqtnd/P9zH/HILi8YVgs5zMAZfaFWobuH7r0azqHcOY6JGWgbkOPXwDlGFqecC8g76X0CbG6gduzf1zuwsPxXc+mUfyjZZ8zzoTS+GQTLD6YswYdGU6W7hXhk6ndcyHc7TS2EAOCBnV3ZQP8Ag==);whiteSpace=wrap;fontSize=17;" parent="1" vertex="1">
          <mxGeometry x="288" y="1310" width="250" height="80" as="geometry" />
        </mxCell>
        <mxCell id="MVtzeael0hPwo9ZVuhFo-1" value="i := 1 .. n" style="strokeWidth=2;html=1;shape=stencil(rZVNb4MwDIZ/Ta5VIKItx4l1p6qXHnpOqTuiQoICa7d/vxQXjY/BmKnEAb+G94ktW2EiKhKZA/O5lhkw8cp8f2tM7oStylTpQveaYGLJMbxhGK4xlEUOcYnaVVoljylgpiitucBNncqHg9IJWHQVG8Zf3Df3R0Sx0dqZKKOLVqaRd2ZSafcv/0QzvggQ8/WIMcodIYMSbEv9KW+HAvPfyCRvGmlPILUrqrl/kQ7/J3k00obSvS7LmwjbEeriC+53cOF6Im9P4oXU6ki9rLeOUN0AT0ROGVpAER1lfHm35kOffj1lLu/L3UvU6cxcoTF0nV6NNaB2SJVuOKxmO3Qa+ASLIJhtsSScIpjtwJ/sQOklZSTi1BQwsjlO741lpQ7MsojOxsLIkJ9VmuJlNrQ/PYNKxcu1Er4B);whiteSpace=wrap;fontSize=17;" vertex="1" parent="1">
          <mxGeometry x="314" y="580" width="200" height="80" as="geometry" />
        </mxCell>
        <mxCell id="MVtzeael0hPwo9ZVuhFo-4" style="edgeStyle=orthogonalEdgeStyle;rounded=0;orthogonalLoop=1;jettySize=auto;html=1;exitX=0.5;exitY=0;exitDx=0;exitDy=0;exitPerimeter=0;entryX=0.5;entryY=0;entryDx=0;entryDy=0;entryPerimeter=0;endArrow=none;endFill=0;" edge="1" parent="1" source="MVtzeael0hPwo9ZVuhFo-2" target="A0MCLNn6qekpqNKE2fol-22">
          <mxGeometry relative="1" as="geometry" />
        </mxCell>
        <mxCell id="MVtzeael0hPwo9ZVuhFo-2" value="" style="strokeWidth=2;html=1;shape=stencil(rZVNb4MwDIZ/Ta5VIKItx4l1p6qXHnpOqTuiQoICa7d/vxQXjY/BmKnEAb+G94ktW2EiKhKZA/O5lhkw8cp8f2tM7oStylTpQveaYGLJMbxhGK4xlEUOcYnaVVoljylgpiitucBNncqHg9IJWHQVG8Zf3Df3R0Sx0dqZKKOLVqaRd2ZSafcv/0QzvggQ8/WIMcodIYMSbEv9KW+HAvPfyCRvGmlPILUrqrl/kQ7/J3k00obSvS7LmwjbEeriC+53cOF6Im9P4oXU6ki9rLeOUN0AT0ROGVpAER1lfHm35kOffj1lLu/L3UvU6cxcoTF0nV6NNaB2SJVuOKxmO3Qa+ASLIJhtsSScIpjtwJ/sQOklZSTi1BQwsjlO741lpQ7MsojOxsLIkJ9VmuJlNrQ/PYNKxcu1Er4B);whiteSpace=wrap;flipV=1;" vertex="1" parent="1">
          <mxGeometry x="314" y="1210" width="200" height="80" as="geometry" />
        </mxCell>
      </root>
    </mxGraphModel>
  </diagram>
</mxfile>
